<svg width="113" height="22" viewBox="0 0 113 22" fill="none" xmlns="http://www.w3.org/2000/svg">
<path d="M5.02112 9.59099C4.90526 9.59099 4.80388 9.55188 4.71699 9.47368C4.63009 9.39547 4.57505 9.29409 4.55188 9.16953C4.47947 8.6858 4.40271 8.26869 4.32161 7.9182C4.2434 7.56771 4.14926 7.2708 4.03919 7.02749C3.92912 6.78417 3.79298 6.58141 3.63078 6.4192C3.46857 6.25409 3.26726 6.1194 3.02684 6.01512C2.78643 5.91085 2.49532 5.8225 2.15353 5.75008C1.81463 5.67767 1.41056 5.6096 0.94132 5.54587C0.813871 5.52849 0.709595 5.47635 0.628491 5.38946C0.547388 5.29966 0.506836 5.19538 0.506836 5.07662C0.506836 4.95496 0.547388 4.85069 0.628491 4.76379C0.712492 4.67399 0.818216 4.62041 0.945665 4.60303C1.5076 4.5393 1.97974 4.46544 2.36208 4.38144C2.74733 4.29454 3.0645 4.17723 3.3136 4.0295C3.56271 3.87887 3.76402 3.67611 3.91754 3.42121C4.07105 3.16631 4.19561 2.84189 4.29119 2.44795C4.38678 2.05111 4.47368 1.56303 4.55188 0.983713C4.57216 0.859158 4.62574 0.757777 4.71264 0.679569C4.79954 0.60136 4.90237 0.562256 5.02112 0.562256C5.13988 0.562256 5.24126 0.60136 5.32526 0.679569C5.41216 0.75488 5.46575 0.854813 5.48602 0.979368C5.57582 1.55869 5.66995 2.04532 5.76844 2.43926C5.86692 2.8332 5.99147 3.15617 6.14209 3.40817C6.29561 3.66018 6.49547 3.86149 6.74168 4.01212C6.99079 4.15985 7.30651 4.27861 7.68886 4.3684C8.0712 4.4553 8.54189 4.53351 9.10093 4.60303C9.22548 4.62041 9.32831 4.67399 9.40941 4.76379C9.49341 4.85069 9.53541 4.95496 9.53541 5.07662C9.53541 5.19538 9.49341 5.29966 9.40941 5.38946C9.32541 5.47925 9.22259 5.53139 9.10093 5.54587C8.539 5.6096 8.06541 5.68491 7.68017 5.77181C7.29492 5.85581 6.97775 5.97312 6.72865 6.12375C6.47954 6.27437 6.27823 6.47713 6.12471 6.73204C5.9712 6.98404 5.84664 7.30846 5.75106 7.7053C5.65547 8.09923 5.56713 8.58587 5.48602 9.16519C5.46864 9.28974 5.41651 9.39112 5.32961 9.46933C5.24271 9.55044 5.13988 9.59099 5.02112 9.59099Z" fill="#1B49FF"/>
<path d="M23.1355 21.1731C22.981 21.1731 22.8459 21.1209 22.73 21.0167C22.6141 20.9124 22.5407 20.7772 22.5099 20.6111C22.4133 19.9661 22.311 19.41 22.2028 18.9427C22.0985 18.4754 21.973 18.0795 21.8263 17.7551C21.6795 17.4307 21.498 17.1603 21.2817 16.944C21.0654 16.7239 20.797 16.5443 20.4765 16.4053C20.1559 16.2662 19.7678 16.1484 19.312 16.0519C18.8602 15.9553 18.3214 15.8646 17.6958 15.7796C17.5258 15.7564 17.3868 15.6869 17.2787 15.571C17.1705 15.4513 17.1165 15.3123 17.1165 15.1539C17.1165 14.9917 17.1705 14.8527 17.2787 14.7368C17.3907 14.6171 17.5316 14.5456 17.7016 14.5225C18.4508 14.4375 19.0803 14.339 19.5901 14.227C20.1038 14.1111 20.5267 13.9547 20.8588 13.7578C21.191 13.5569 21.4594 13.2866 21.6641 12.9467C21.8687 12.6068 22.0348 12.1743 22.1623 11.649C22.2897 11.1199 22.4056 10.4691 22.5099 9.69671C22.5369 9.53064 22.6083 9.39546 22.7242 9.29118C22.8401 9.1869 22.9772 9.13477 23.1355 9.13477C23.2939 9.13477 23.429 9.1869 23.541 9.29118C23.6569 9.3916 23.7283 9.52484 23.7554 9.69091C23.8751 10.4633 24.0006 11.1122 24.1319 11.6374C24.2632 12.1627 24.4293 12.5933 24.6301 12.9293C24.8348 13.2653 25.1013 13.5337 25.4296 13.7346C25.7617 13.9315 26.1827 14.0899 26.6925 14.2096C27.2023 14.3255 27.8299 14.4298 28.5752 14.5225C28.7413 14.5456 28.8784 14.6171 28.9866 14.7368C29.0986 14.8527 29.1546 14.9917 29.1546 15.1539C29.1546 15.3123 29.0986 15.4513 28.9866 15.571C28.8746 15.6908 28.7375 15.7603 28.5752 15.7796C27.826 15.8646 27.1946 15.965 26.6809 16.0808C26.1672 16.1928 25.7443 16.3493 25.4122 16.5501C25.0801 16.7509 24.8117 17.0213 24.607 17.3611C24.4023 17.6971 24.2362 18.1297 24.1088 18.6588C23.9813 19.1841 23.8635 19.8329 23.7554 20.6053C23.7322 20.7714 23.6627 20.9066 23.5468 21.0109C23.431 21.119 23.2939 21.1731 23.1355 21.1731Z" fill="#1B49FF"/>
<path d="M18.8521 0.12783C19.6166 -0.0739364 20.2484 -0.0368707 20.7476 0.239158C21.2467 0.515302 21.5925 1.03347 21.7837 1.79287L21.9907 2.57314C22.0969 2.99265 22.0565 3.36696 21.8706 3.69619C21.6848 4.02536 21.3718 4.2483 20.9312 4.36513L12.1851 6.70693H21.5044C21.9556 6.70693 22.3141 6.84003 22.5796 7.10537C22.8429 7.36871 22.9749 7.71849 22.9771 8.1542C22.6628 8.18399 22.3684 8.30253 22.1196 8.50674L22.063 8.55654C21.7847 8.80698 21.6159 9.12551 21.5464 9.46865L21.5337 9.53799L21.5317 9.55068L21.5298 9.56435C21.4284 10.3155 21.3185 10.9304 21.2017 11.4159C21.09 11.8763 20.9548 12.2073 20.8169 12.4364C20.694 12.6404 20.5408 12.7935 20.3511 12.9091C20.1343 13.0369 19.818 13.1616 19.3755 13.2616C18.9104 13.3637 18.3177 13.4574 17.5903 13.5399L17.5786 13.5409L17.5679 13.5429C17.2079 13.592 16.8755 13.7465 16.6089 14.0077L16.5571 14.0614L16.5562 14.0624C16.2728 14.366 16.1275 14.7481 16.1274 15.1542C16.1275 15.5623 16.2767 15.9357 16.5454 16.2333L16.5503 16.2401L16.5562 16.246L16.6089 16.2997C16.8771 16.5623 17.2099 16.7116 17.562 16.7597H17.563C18.1718 16.8424 18.6846 16.9286 19.105 17.0185L19.1069 17.0194L19.2573 17.0526C19.5973 17.1316 19.8703 17.22 20.0835 17.3124C20.3024 17.4074 20.4607 17.5186 20.5767 17.6366L20.5796 17.6405L20.5825 17.6435C20.6611 17.7221 20.7378 17.822 20.812 17.9472C20.7393 17.9508 20.6647 17.955 20.5884 17.955H7.49365C6.6971 17.955 6.09646 17.7556 5.69287 17.3573C5.29466 16.9643 5.09521 16.3771 5.09521 15.5966V10.5761C5.3873 10.5625 5.66115 10.4649 5.89209 10.2899L5.99561 10.204C5.99724 10.2025 5.99886 10.2006 6.00049 10.1991L6.00928 10.1913C6.2412 9.97738 6.38459 9.70977 6.44775 9.4247L6.47021 9.30166C6.54854 8.74221 6.63101 8.29002 6.71631 7.93838L6.71729 7.93642C6.79733 7.60414 6.89009 7.38394 6.97412 7.24599L6.97607 7.24209C7.04855 7.12179 7.1363 7.03521 7.24463 6.96963C7.37426 6.89125 7.58195 6.80569 7.896 6.73721L7.89893 6.73623H7.90283C8.24164 6.65982 8.67734 6.58945 9.21729 6.52822L9.22021 6.52724H9.22217L9.28857 6.51846C9.61604 6.46506 9.90875 6.30753 10.1362 6.06435C10.3848 5.79856 10.5288 5.45525 10.5288 5.07607C10.5288 4.75676 10.4277 4.45544 10.2358 4.20498L10.1479 4.10049C10.1441 4.09623 10.1401 4.09199 10.1362 4.08779C10.1326 4.08398 10.1291 4.07985 10.1255 4.07607H10.1245C9.88446 3.82189 9.57646 3.67058 9.24268 3.62392L9.23486 3.62197H9.22803L9.03076 3.5956C8.58385 3.53592 8.214 3.47236 7.91748 3.40517C7.67431 3.34792 7.49194 3.28196 7.35791 3.21767L18.8521 0.12783ZM8.1626 8.0458L7.02295 10.164H9.64404L10.8384 7.9501H10.2417L8.1626 8.0458ZM12.0815 10.164H14.8931L16.0884 7.9501H13.2681L12.0815 10.164ZM17.3306 10.164H19.9429L21.1382 7.9501H18.5171L17.3306 10.164ZM12.1128 3.22646L11.5396 5.67178L14.2563 4.95498L14.8296 2.50185L12.1128 3.22646ZM19.4019 1.27431C19.3063 1.29555 19.2053 1.32004 19.0991 1.34658L17.1792 1.87197L16.5981 4.31728L19.1304 3.64053L19.6968 1.21084C19.6013 1.23206 19.5027 1.25309 19.4019 1.27431Z" fill="white"/>
<path d="M112.493 14.5843C112.493 16.1398 111.285 16.8718 110.059 17.1463C109.144 17.3476 108.522 17.3842 107.625 17.1463C107.387 16.9267 107.003 16.4875 106.71 16.1581V17.0548H104.148V14.1634H106.71C106.71 14.4928 106.802 14.7307 107.113 14.932C107.479 15.1699 108.119 15.2248 108.778 15.1882C109.272 15.1333 109.913 14.932 109.931 14.5477C109.931 14.1268 109.4 13.8523 108.467 13.651C107.204 13.3582 106.418 13.1569 105.649 12.8457C104.807 12.498 104.368 11.8575 104.185 11.3268C103.965 10.5216 104.02 9.47847 104.679 8.72815C105.466 7.81313 106.399 7.63013 107.552 7.63013C108.046 7.63013 108.284 7.70333 108.668 7.77653C108.851 7.95953 109.254 8.32554 109.638 8.67325V7.90463H112.475V10.7778H109.638C109.638 10.1922 108.961 9.78958 108.119 9.77128C107.424 9.77128 106.619 9.89938 106.619 10.4301C106.619 11.0706 107.827 11.1987 108.467 11.3268C109.895 11.5464 110.59 11.8026 111.249 12.1686C112.2 12.7176 112.493 13.5961 112.493 14.5843Z" fill="white"/>
<path d="M98.6019 17.3291C96.8268 17.3291 95.308 16.8167 94.2649 15.4625C93.6793 14.7122 93.3865 13.5043 93.3865 12.4429V7.90442H96.0766V9.11225C96.3327 8.80114 96.6255 8.45344 97.0647 7.95933C97.6137 7.73972 98.2359 7.64822 98.8947 7.64822C100.816 7.64822 102.024 8.50834 102.701 9.80766C103.25 10.8508 103.232 11.9305 103.232 13.12H96.1315C96.1681 13.8887 96.5889 14.8952 98.4555 14.8952C99.6084 14.8952 100.395 14.456 100.469 13.7789H103.177C103.14 16.0298 100.999 17.3291 98.6019 17.3291ZM96.2961 11.0704H100.212C100.103 10.5031 99.5352 9.75276 98.3091 9.75276C97.266 9.75276 96.5706 10.3201 96.2961 11.0704ZM96.4059 6.7149H99.6633L102.024 4.39075H98.7666L98.2359 4.90316L96.4059 6.7149Z" fill="white"/>
<path d="M92.7012 14.768V17.33C91.6581 17.33 90.3039 17.1836 89.7183 16.8725C89.0595 16.5431 88.0713 15.7196 88.053 13.4686L88.0347 6.8073H86.8635V4.24524H90.615V8.67394V12.6634C90.6516 13.4137 90.6699 13.8164 90.9444 14.2556C91.2372 14.7314 92.079 14.768 92.7012 14.768Z" fill="white"/>
<path d="M84.8692 7.90559V14.4937H86.443V17.0558H80.8066V14.4937H82.3072V10.4676H80.8066V7.90559H84.8692ZM82.2889 5.19713C82.2889 5.92914 82.8745 6.51476 83.6248 6.51476C83.9908 6.51476 84.3385 6.38665 84.5764 6.14875C84.8143 5.89254 84.9607 5.54483 84.9607 5.19713C84.9607 4.81282 84.8143 4.48341 84.5764 4.2272C84.3385 4.0076 83.9908 3.8429 83.6248 3.8429C83.2771 3.8429 82.9111 4.0076 82.6549 4.2272C82.417 4.48341 82.2889 4.81282 82.2889 5.19713Z" fill="white"/>
<path d="M80.2447 4.24524V6.9537H74.7731V9.05825H78.799V11.7667H74.7731V17.0555H72.0647V4.24524H80.2447Z" fill="white"/>
<path d="M68.4294 13.7736L70.382 13.9749C69.919 15.9477 68.3891 17.1153 66.1144 17.1153C63.3768 17.1153 61.4041 15.3639 61.4041 12.5658C61.4041 9.76768 63.3969 7.75464 66.0541 7.75464C68.9528 7.75464 70.4424 9.76768 70.4424 12.1833V13.0489H63.7794C63.8599 14.3574 64.8865 15.2834 66.195 15.2834C67.3826 15.2834 68.0872 14.7802 68.4294 13.7736ZM63.8196 11.5392H68.0872C68.0066 10.5125 67.3826 9.52612 66.0339 9.52612C64.7054 9.52612 64.0411 10.432 63.8196 11.5392Z" fill="#1B49FF"/>
<path d="M53.845 12.1229V16.8737H51.4294V7.9962H53.845V9.4456C54.2879 8.43907 55.4152 7.75464 56.7437 7.75464C59.119 7.75464 59.9846 9.36507 59.9846 11.3379V16.8737H57.569V11.821C57.569 10.4521 57.0255 9.66703 55.8379 9.66703C54.61 9.66703 53.845 10.6333 53.845 12.1229Z" fill="#1B49FF"/>
<path d="M46.9961 7.99399H49.4117V16.8715H46.9961V7.99399ZM46.9558 6.54459V4.18933H49.4318V6.54459H46.9558Z" fill="#1B49FF"/>
<path d="M33.061 10.5305C33.061 6.62523 35.8188 3.94788 39.4221 3.94788C43.1662 3.94788 45.2396 6.30314 45.461 9.50388L43.0454 9.60453C42.8643 7.71227 41.737 6.16223 39.4221 6.16223C37.1675 6.16223 35.6779 7.85318 35.6779 10.5305C35.6779 13.2079 37.1675 14.8988 39.4221 14.8988C41.737 14.8988 42.8643 13.3488 43.0454 11.4565L45.461 11.5572C45.2396 14.7781 43.1662 17.1132 39.4221 17.1132C35.8188 17.1132 33.061 14.4358 33.061 10.5305Z" fill="#1B49FF"/>
</svg>
